<?xml version="1.0" standalone="no"?>
<!DOCTYPE svg PUBLIC "-//W3C//DTD SVG 20010904//EN"
 "http://www.w3.org/TR/2001/REC-SVG-20010904/DTD/svg10.dtd">
<svg version="1.0" xmlns="http://www.w3.org/2000/svg"
 width="1024.000000pt" height="1024.000000pt" viewBox="0 0 1024.000000 1024.000000"
 preserveAspectRatio="xMidYMid meet">

<g transform="translate(0.000000,1024.000000) scale(0.100000,-0.100000)"
fill="#000000" stroke="none">
<path d="M3558 7541 l-33 -29 0 -1476 0 -1476 28 -27 27 -28 1535 -3 1534 -2
33 29 33 29 0 1477 0 1477 -33 29 -32 29 -1530 0 -1530 0 -32 -29z m2882
-1506 l0 -1255 -1320 0 -1320 0 0 1255 0 1255 1320 0 1320 0 0 -1255z"/>
<path d="M5074 6098 c-387 -386 -707 -712 -710 -724 -9 -34 4 -63 36 -79 25
-13 34 -13 59 -3 16 7 344 326 730 709 564 559 701 700 701 721 0 41 -36 78
-76 78 -32 0 -79 -44 -740 -702z"/>
<path d="M5310 3509 c-30 -3 -69 -13 -87 -22 -81 -42 -114 -147 -74 -231 28
-57 62 -78 181 -112 52 -15 107 -33 122 -41 48 -24 50 -98 3 -129 -67 -44
-177 -18 -209 50 -16 35 -19 36 -71 36 -52 0 -55 -1 -55 -25 0 -75 82 -156
178 -176 199 -41 363 98 298 254 -21 52 -69 84 -164 112 -48 14 -103 32 -122
38 -69 25 -79 100 -17 137 60 37 142 16 178 -45 20 -33 24 -35 76 -35 l55 0
-7 33 c-9 47 -55 107 -96 129 -48 25 -120 35 -189 27z"/>
<path d="M8049 3510 c-95 -16 -178 -83 -222 -178 -17 -38 -21 -67 -21 -147 -1
-87 2 -107 25 -155 33 -70 79 -117 149 -149 45 -21 69 -25 135 -25 131 1 219
57 274 173 23 49 26 69 26 156 0 117 -17 165 -84 238 -66 72 -172 104 -282 87z
m123 -112 c49 -15 103 -74 119 -130 31 -116 -12 -247 -94 -287 -109 -53 -228
-2 -262 113 -58 196 66 355 237 304z"/>
<path d="M8689 3510 c-116 -19 -180 -100 -164 -208 5 -36 16 -55 48 -88 36
-35 56 -45 142 -68 125 -35 153 -50 161 -83 17 -67 -43 -118 -128 -109 -60 6
-94 29 -110 72 -12 34 -13 34 -74 34 l-62 0 8 -35 c20 -90 88 -150 191 -167
146 -25 273 44 295 158 18 98 -37 169 -156 204 -145 42 -174 54 -189 81 -33
59 26 124 106 116 53 -6 92 -31 107 -68 10 -28 13 -29 68 -28 66 2 69 8 39 74
-41 91 -151 136 -282 115z"/>
<path d="M2757 3496 c-39 -14 -54 -24 -100 -65 -71 -64 -110 -209 -88 -327 15
-86 38 -130 93 -181 56 -51 104 -68 193 -67 78 1 139 25 173 69 l20 25 7 -40
c7 -40 7 -40 51 -40 l44 0 0 165 0 165 -140 0 -140 0 0 -45 0 -45 81 0 82 0
-6 -35 c-15 -94 -117 -147 -218 -114 -79 27 -124 107 -124 219 1 76 17 129 53
172 69 82 210 76 260 -12 16 -28 21 -30 80 -30 l62 0 -15 38 c-25 60 -67 105
-125 135 -45 23 -66 27 -129 27 -42 -1 -93 -7 -114 -14z"/>
<path d="M1280 3185 l0 -315 55 0 55 0 0 35 0 35 33 -35 c85 -91 229 -60 288
63 34 68 34 188 0 255 -34 70 -89 107 -157 107 -66 0 -99 -12 -135 -51 l-29
-31 0 126 0 126 -55 0 -55 0 0 -315z m307 30 c82 -94 32 -265 -76 -265 -55 0
-86 22 -107 76 -31 81 -5 179 57 212 36 19 100 8 126 -23z"/>
<path d="M3280 3185 l0 -315 210 0 210 0 0 45 0 45 -150 0 -150 0 0 90 0 90
140 0 140 0 0 45 0 45 -140 0 -140 0 0 85 0 85 145 0 145 0 0 50 0 50 -205 0
-205 0 0 -315z"/>
<path d="M3825 3185 l0 -315 57 0 58 0 2 211 3 212 148 -212 148 -211 60 0 59
0 0 315 0 315 -57 0 -58 0 3 -220 c3 -207 -2 -246 -24 -202 -5 10 -72 109
-149 220 l-139 202 -56 0 -55 0 0 -315z"/>
<path d="M4468 3453 c10 -26 63 -168 117 -315 l100 -268 65 0 65 0 80 218 c43
119 96 261 116 315 l36 97 -62 0 -62 0 -84 -239 c-46 -132 -86 -237 -89 -235
-2 3 -43 110 -90 237 l-86 232 -62 3 -62 3 18 -48z"/>
<path d="M5670 3450 l0 -50 95 0 95 0 0 -265 0 -265 60 0 60 0 0 265 0 265 95
0 95 0 0 50 0 50 -250 0 -250 0 0 -50z"/>
<path d="M6262 3257 l3 -244 30 -49 c45 -73 115 -108 215 -108 41 -1 92 5 113
13 50 17 103 64 130 115 21 38 22 57 25 279 l4 237 -61 0 -61 0 0 -210 c0
-229 -6 -259 -55 -298 -40 -32 -88 -37 -141 -17 -80 30 -84 44 -84 303 l0 222
-61 0 -60 0 3 -243z"/>
<path d="M6910 3184 l0 -316 168 4 c187 4 212 11 284 83 65 65 83 115 83 230
0 90 -3 106 -28 157 -33 68 -82 111 -155 138 -44 17 -78 20 -202 20 l-150 0 0
-316z m315 197 c50 -23 70 -45 90 -100 33 -95 9 -220 -52 -270 -40 -33 -57
-37 -165 -45 l-68 -5 0 220 0 219 78 0 c53 0 89 -6 117 -19z"/>
<path d="M7570 3185 l0 -315 58 0 57 0 0 315 0 315 -57 0 -58 0 0 -315z"/>
<path d="M1790 3313 c0 -4 39 -109 86 -232 l87 -223 -17 -34 c-16 -35 -48 -54
-92 -54 -22 0 -24 -4 -24 -45 0 -44 1 -45 33 -45 56 0 111 21 143 55 23 25 55
98 132 304 56 149 102 273 102 276 0 3 -24 5 -54 5 l-54 0 -53 -157 c-28 -87
-54 -162 -57 -167 -3 -5 -31 65 -62 155 l-57 164 -57 3 c-31 2 -56 -1 -56 -5z"/>
<path d="M2320 2930 l0 -60 60 0 60 0 0 60 0 60 -60 0 -60 0 0 -60z"/>
</g>
</svg>
